<mxfile host="app.diagrams.net" modified="2023-06-19T08:21:00.838Z" agent="Mozilla/5.0 (Windows NT 10.0; Win64; x64) AppleWebKit/537.36 (KHTML, like Gecko) Chrome/114.0.0.0 Safari/537.36" etag="HnPJ6WuJKLFT6rvA0KFR" version="21.4.0" type="device">
  <diagram id="CBeOW3GiP0rRMRTTh0vZ" name="Seite-1">
    <mxGraphModel dx="1358" dy="725" grid="1" gridSize="10" guides="1" tooltips="1" connect="1" arrows="1" fold="1" page="1" pageScale="1" pageWidth="1169" pageHeight="827" background="#FFFFFF" math="0" shadow="0">
      <root>
        <mxCell id="0" />
        <mxCell id="2" value="Layer 0" parent="0" />
        <mxCell id="4" value="&lt;div style=&#39;width: 93.0px;height:auto;word-break: break-word;&#39;&gt;&lt;div align=&quot;center&quot;&gt;&lt;span style=&quot;font-family: Arial; font-size: 12px; text-decoration: none; line-height: 0;&quot;&gt;&lt;span style=&quot;text-decoration: none; line-height: 14px;&quot;&gt;Deploy necessary DB objects (vault tables and stage table)&lt;/span&gt;&lt;/span&gt;&lt;/div&gt;&lt;/div&gt;" style="shape=rect;rounded=1;arcSize=15;absoluteArcSize=1;shadow=0;strokeWidth=2;fillColor=#FFFFFF;strokeColor=#333333;opacity=100.0;html=1;nl2Br=0;verticalAlign=middle;align=center;spacingLeft=2.0;spacingRight=0;whiteSpace=wrap;gliffyId=5;" parent="2" vertex="1">
          <mxGeometry x="70" y="192" width="100" height="75" as="geometry" />
        </mxCell>
        <mxCell id="5" value="&lt;div style=&quot;width: 93.0px;height:auto;word-break: break-word;&quot;&gt;&lt;div align=&quot;center&quot;&gt;&lt;span style=&quot;font-family: Arial; font-size: 12px; text-decoration: none; line-height: 0;&quot;&gt;&lt;span style=&quot;text-decoration: none; line-height: 14px;&quot;&gt;Determine increment of data to process&lt;/span&gt;&lt;/span&gt;&lt;/div&gt;&lt;/div&gt;" style="shape=rect;rounded=1;arcSize=15;absoluteArcSize=1;shadow=0;strokeWidth=2;fillColor=#FFFFFF;strokeColor=#333333;opacity=100.0;html=1;nl2Br=0;verticalAlign=middle;align=center;spacingLeft=2.0;spacingRight=0;whiteSpace=wrap;gliffyId=8;" parent="2" vertex="1">
          <mxGeometry x="280" y="192" width="100" height="75" as="geometry" />
        </mxCell>
        <mxCell id="6" value="&lt;div style=&quot;width: 93.0px;height:auto;word-break: break-word;&quot;&gt;&lt;div align=&quot;center&quot;&gt;&lt;span style=&quot;font-family: Arial; font-size: 12px; line-height: 0;&quot;&gt;&lt;span style=&quot;line-height: 14px;&quot;&gt;signal/log completion of increment&lt;/span&gt;&lt;/span&gt;&lt;/div&gt;&lt;/div&gt;" style="shape=rect;rounded=1;arcSize=15;absoluteArcSize=1;shadow=0;strokeWidth=2;fillColor=#FFFFFF;strokeColor=#333333;opacity=100.0;html=1;nl2Br=0;verticalAlign=middle;align=center;spacingLeft=2.0;spacingRight=0;whiteSpace=wrap;gliffyId=33;" parent="2" vertex="1">
          <mxGeometry x="930" y="192" width="100" height="75" as="geometry" />
        </mxCell>
        <mxCell id="7" value="&lt;div style=&#39;width: 64.2px;height:auto;word-break: break-word;&#39;&gt;&lt;div align=&quot;center&quot;&gt;&lt;span style=&quot;font-family: Arial; font-size: 12px; text-decoration: none; line-height: 0;&quot;&gt;&lt;span style=&quot;text-decoration: none; line-height: 14px;&quot;&gt;connect to source&lt;/span&gt;&lt;/span&gt;&lt;/div&gt;&lt;/div&gt;" style="shape=rect;rounded=1;arcSize=15;absoluteArcSize=1;shadow=0;strokeWidth=2;fillColor=#FFFFFF;strokeColor=#333333;opacity=100.0;html=1;nl2Br=0;verticalAlign=middle;align=center;spacingLeft=1.4;spacingRight=0;whiteSpace=wrap;gliffyId=11;" parent="2" vertex="1">
          <mxGeometry x="190" y="192" width="70" height="75" as="geometry" />
        </mxCell>
        <mxCell id="8" value="&lt;div style=&quot;width: 73.8px;height:auto;word-break: break-word;&quot;&gt;&lt;div align=&quot;center&quot;&gt;&lt;span style=&quot;font-family: Arial; font-size: 12px; text-decoration: none; line-height: 0;&quot;&gt;&lt;span style=&quot;text-decoration: none; line-height: 14px;&quot;&gt;retrieve source data&lt;/span&gt;&lt;/span&gt;&lt;/div&gt;&lt;div align=&quot;center&quot;&gt;&lt;span style=&quot;font-family: Arial; font-size: 12px; text-decoration: none; line-height: 0;&quot;&gt;&lt;span style=&quot;text-decoration: none; line-height: 14px;&quot;&gt;(increment)&lt;/span&gt;&lt;/span&gt;&lt;/div&gt;&lt;/div&gt;" style="shape=rect;rounded=1;arcSize=15;absoluteArcSize=1;shadow=0;strokeWidth=2;fillColor=#FFFFFF;strokeColor=#333333;opacity=100.0;html=1;nl2Br=0;verticalAlign=middle;align=center;spacingLeft=1.6;spacingRight=0;whiteSpace=wrap;gliffyId=14;" parent="2" vertex="1">
          <mxGeometry x="400" y="192" width="80" height="75" as="geometry" />
        </mxCell>
        <mxCell id="9" value="&lt;div style=&#39;width: 131.4px;height:auto;word-break: break-word;&#39;&gt;&lt;div align=&quot;center&quot;&gt;&lt;span style=&quot;font-family: Arial; font-size: 12px; text-decoration: none; line-height: 0;&quot;&gt;&lt;span style=&quot;text-decoration: none; line-height: 14px;&quot;&gt;parse source data into processable rows and add extrapolated data&lt;/span&gt;&lt;/span&gt;&lt;/div&gt;&lt;/div&gt;" style="shape=rect;rounded=1;arcSize=15;absoluteArcSize=1;shadow=0;strokeWidth=2;fillColor=#FFFFFF;strokeColor=#333333;opacity=100.0;html=1;nl2Br=0;verticalAlign=middle;align=center;spacingLeft=2.8;spacingRight=0;whiteSpace=wrap;gliffyId=17;" parent="2" vertex="1">
          <mxGeometry x="500" y="192" width="140" height="75" as="geometry" />
        </mxCell>
        <mxCell id="10" value="create stage&#xa;rows = calculate data vault hashes and meta data" style="shape=rect;rounded=1;arcSize=15;absoluteArcSize=1;shadow=0;strokeWidth=2;fillColor=#FFFFFF;strokeColor=#333333;opacity=100.0;nl2Br=0;verticalAlign=middle;align=center;spacingLeft=1.6;spacingRight=0;whiteSpace=wrap;gliffyId=23;" parent="2" vertex="1">
          <mxGeometry x="660" y="192" width="110" height="75" as="geometry" />
        </mxCell>
        <mxCell id="11" value="&lt;div style=&#39;width: 80.3906px;height:auto;word-break: break-word;&#39;&gt;&lt;div align=&quot;center&quot;&gt;&lt;span style=&quot;font-family: Arial; font-size: 12px; text-decoration: none; line-height: 14px;&quot;&gt;rejected data&lt;/span&gt;&lt;/div&gt;&lt;/div&gt;" style="shadow=0;strokeWidth=2;fillColor=#FFFFFF;strokeColor=#333333;opacity=100.0;html=1;nl2Br=0;verticalLabelPosition=top;verticalAlign=bottom;align=center;spacingLeft=2.0;spacingRight=0;gliffyId=58;" parent="2" vertex="1">
          <mxGeometry x="545" y="130" width="72" height="22" as="geometry" />
        </mxCell>
        <mxCell id="12" style="shape=filledEdge;strokeWidth=1;strokeColor=#000000;fillColor=none;startArrow=oval;startFill=0;startSize=10;sourcePerimeterSpacing=6;;endArrow=block;endFill=0;endSize=10;rounded=1;dashed=1;fixDash=1;dashPattern=8.0 2.0;gliffyId=63;edgeStyle=orthogonalEdgeStyle;" parent="2" source="9" target="11" edge="1">
          <mxGeometry width="100" height="100" relative="1" as="geometry">
            <Array as="points">
              <mxPoint x="581" y="192.11233520507812" />
              <mxPoint x="581" y="178.74156188964844" />
              <mxPoint x="581" y="165.37078857421875" />
              <mxPoint x="581" y="152" />
            </Array>
          </mxGeometry>
        </mxCell>
        <mxCell id="13" value="for every target table: load data from stage rows to data vault" style="shape=rect;rounded=1;arcSize=15;absoluteArcSize=1;shadow=0;strokeWidth=2;fillColor=#FFFFFF;strokeColor=#333333;opacity=100.0;nl2Br=0;verticalAlign=middle;align=center;spacingLeft=2.8;spacingRight=0;whiteSpace=wrap;gliffyId=26;" parent="2" vertex="1">
          <mxGeometry x="790" y="192" width="120" height="75" as="geometry" />
        </mxCell>
        <mxCell id="14" value="&lt;div style=&quot;width: 233.8px;height:auto;word-break: break-word;&quot;&gt;&lt;div align=&quot;center&quot;&gt;&lt;span style=&quot;font-family: Arial; font-size: 12px; text-decoration: none; color: #666666; line-height: 0;&quot;&gt;&lt;span style=&quot;text-decoration: none; line-height: 14px;&quot;&gt;DVPD core syntax&lt;/span&gt;&lt;/span&gt;&lt;/div&gt;&lt;div align=&quot;center&quot;&gt;&lt;font face=&quot;Arial&quot; color=&quot;#666666&quot;&gt;+ derivation of process steps &amp;amp; hash&amp;nbsp;&lt;/font&gt;&lt;/div&gt;&lt;div align=&quot;center&quot;&gt;&lt;font face=&quot;Arial&quot; color=&quot;#666666&quot;&gt;assembly instructions&lt;/font&gt;&lt;/div&gt;&lt;/div&gt;" style="shape=rect;shadow=0;strokeWidth=0;strokeColor=#d6b656;fillColor=#FFD966;opacity=100.0;html=1;nl2Br=0;verticalAlign=middle;align=center;spacingLeft=1.6;spacingRight=0;whiteSpace=wrap;gliffyId=36;" parent="2" vertex="1">
          <mxGeometry x="660" y="282" width="250" height="60" as="geometry" />
        </mxCell>
        <mxCell id="15" value="&lt;div style=&quot;width: 95.666664px;height:auto;word-break: break-word;&quot;&gt;&lt;div align=&quot;center&quot;&gt;&lt;span style=&quot;font-family: Arial; font-size: 12px; text-decoration: none; color: #666666; line-height: 0;&quot;&gt;&lt;span style=&quot;text-decoration: none; line-height: 14px;&quot;&gt;DB Structure&amp;nbsp; is generated from DVPD core&lt;/span&gt;&lt;/span&gt;&lt;/div&gt;&lt;/div&gt;" style="shape=rect;shadow=0;strokeWidth=0;strokeColor=none;fillColor=#FFF0B3;opacity=100.0;html=1;nl2Br=0;verticalAlign=middle;align=center;spacingLeft=1.2666667;spacingRight=0;whiteSpace=wrap;gliffyId=39;" parent="2" vertex="1">
          <mxGeometry x="70" y="282" width="100" height="60" as="geometry" />
        </mxCell>
        <mxCell id="17" value="&lt;div style=&quot;width: 184.46666px;height:auto;word-break: break-word;&quot;&gt;&lt;div align=&quot;center&quot;&gt;&lt;span style=&quot;font-family: Arial; font-size: 12px; color: rgb(102, 102, 102); text-decoration: none; line-height: 14px;&quot;&gt; DVPD syntax proposals for common patterns, formats and technologies&lt;/span&gt;&lt;/div&gt;&lt;/div&gt;" style="shape=rect;shadow=0;strokeWidth=0;strokeColor=none;fillColor=#FFF0B3;opacity=100.0;html=1;nl2Br=0;verticalAlign=middle;align=center;spacingLeft=1.2666667;spacingRight=0;whiteSpace=wrap;gliffyId=44;" parent="2" vertex="1">
          <mxGeometry x="190" y="282" width="450" height="60" as="geometry" />
        </mxCell>
        <mxCell id="18" value="&lt;div style=&quot;width: 302.86667px;height:auto;word-break: break-word;&quot;&gt;&lt;div align=&quot;left&quot;&gt;&lt;span style=&quot;font-family: Arial; font-size: 12px; text-decoration: none; line-height: 0;&quot;&gt;&lt;span style=&quot;text-decoration: none; line-height: 14px;&quot;&gt;Prepare&lt;/span&gt;&lt;/span&gt;&lt;/div&gt;&lt;/div&gt;" style="shape=rect;shadow=0;strokeWidth=0;strokeColor=none;fillColor=#808080;opacity=100.0;html=1;nl2Br=0;verticalAlign=middle;align=left;spacingLeft=2.0666666;spacingRight=0;whiteSpace=wrap;gliffyId=47;fontStyle=1;fontColor=#FFFFFF;" parent="2" vertex="1">
          <mxGeometry x="70" y="70" width="310" height="30" as="geometry" />
        </mxCell>
        <mxCell id="19" value="&lt;div style=&quot;width: 233.8px;height:auto;word-break: break-word;&quot;&gt;&lt;div align=&quot;left&quot;&gt;&lt;span style=&quot;font-family: Arial; font-size: 12px; text-decoration: none; line-height: 0;&quot;&gt;&lt;span style=&quot;text-decoration: none; line-height: 14px;&quot;&gt;Fetch&lt;/span&gt;&lt;/span&gt;&lt;/div&gt;&lt;/div&gt;" style="shape=rect;shadow=0;strokeWidth=0;strokeColor=none;fillColor=#808080;opacity=100.0;html=1;nl2Br=0;verticalAlign=middle;align=left;spacingLeft=1.6;spacingRight=0;whiteSpace=wrap;gliffyId=49;fontStyle=1;fontColor=#FFFFFF;" parent="2" vertex="1">
          <mxGeometry x="400" y="70" width="240" height="30" as="geometry" />
        </mxCell>
        <mxCell id="20" value="&lt;div style=&quot;width: 75.933334px;height:auto;word-break: break-word;&quot;&gt;&lt;div align=&quot;left&quot;&gt;&lt;span style=&quot;font-family: Arial; font-size: 12px; text-decoration: none; line-height: 0;&quot;&gt;&lt;span style=&quot;text-decoration: none; line-height: 14px;&quot;&gt;Stage&lt;/span&gt;&lt;/span&gt;&lt;/div&gt;&lt;/div&gt;" style="shape=rect;shadow=0;strokeWidth=0;strokeColor=none;fillColor=#808080;opacity=100.0;html=1;nl2Br=0;verticalAlign=middle;align=left;spacingLeft=0.53333336;spacingRight=0;whiteSpace=wrap;gliffyId=51;fontStyle=1;fontColor=#FFFFFF;" parent="2" vertex="1">
          <mxGeometry x="660" y="70" width="120" height="30" as="geometry" />
        </mxCell>
        <mxCell id="21" value="&lt;div style=&quot;width: 145.0px;height:auto;word-break: break-word;&quot;&gt;&lt;div align=&quot;left&quot;&gt;&lt;span style=&quot;font-family: Arial; font-size: 12px; text-decoration: none; line-height: 0;&quot;&gt;&lt;span style=&quot;text-decoration: none; line-height: 14px;&quot;&gt;Load&lt;/span&gt;&lt;/span&gt;&lt;/div&gt;&lt;/div&gt;" style="shape=rect;shadow=0;strokeWidth=0;strokeColor=none;fillColor=#808080;opacity=100.0;html=1;nl2Br=0;verticalAlign=middle;align=left;spacingLeft=1.0;spacingRight=0;whiteSpace=wrap;gliffyId=53;fontStyle=1;fontColor=#FFFFFF;" parent="2" vertex="1">
          <mxGeometry x="790" y="70" width="120" height="30" as="geometry" />
        </mxCell>
        <mxCell id="22" value="&lt;div style=&quot;width: 95.666664px;height:auto;word-break: break-word;&quot;&gt;&lt;div align=&quot;left&quot;&gt;&lt;span style=&quot;font-family: Arial; font-size: 12px; text-decoration: none; line-height: 0;&quot;&gt;&lt;span style=&quot;text-decoration: none; line-height: 14px;&quot;&gt;Follow up&lt;/span&gt;&lt;/span&gt;&lt;/div&gt;&lt;/div&gt;" style="shape=rect;shadow=0;strokeWidth=0;strokeColor=none;fillColor=#808080;opacity=100.0;html=1;nl2Br=0;verticalAlign=middle;align=left;spacingLeft=0.6666667;spacingRight=0;whiteSpace=wrap;gliffyId=55;fontStyle=1;fontColor=#FFFFFF;" parent="2" vertex="1">
          <mxGeometry x="930" y="70" width="100" height="30" as="geometry" />
        </mxCell>
        <mxCell id="23" style="shape=filledEdge;strokeWidth=1;strokeColor=#000000;fillColor=none;startArrow=none;startFill=0;startSize=6;endArrow=block;endFill=1;endSize=6;rounded=1;gliffyId=7;edgeStyle=orthogonalEdgeStyle;" parent="2" target="4" edge="1" source="ZxatZtUOmhE9-3AA2Q4v-35">
          <mxGeometry width="100" height="100" relative="1" as="geometry">
            <mxPoint x="39.850372314453125" y="229.5" as="sourcePoint" />
          </mxGeometry>
        </mxCell>
        <mxCell id="24" style="shape=filledEdge;strokeWidth=1;strokeColor=#000000;fillColor=none;startArrow=none;startFill=0;startSize=6;endArrow=block;endFill=1;endSize=6;rounded=1;gliffyId=10;edgeStyle=orthogonalEdgeStyle;" parent="2" source="4" target="7" edge="1">
          <mxGeometry width="100" height="100" relative="1" as="geometry">
            <Array as="points">
              <mxPoint x="170" y="229.5" />
              <mxPoint x="176.6666717529297" y="229.5" />
              <mxPoint x="183.3333282470703" y="229.5" />
              <mxPoint x="190" y="229.5" />
            </Array>
          </mxGeometry>
        </mxCell>
        <mxCell id="25" style="shape=filledEdge;strokeWidth=1;strokeColor=#000000;fillColor=none;startArrow=none;startFill=0;startSize=6;endArrow=block;endFill=1;endSize=6;rounded=1;gliffyId=13;edgeStyle=orthogonalEdgeStyle;" parent="2" source="7" target="5" edge="1">
          <mxGeometry width="100" height="100" relative="1" as="geometry">
            <Array as="points">
              <mxPoint x="260" y="229.5" />
              <mxPoint x="266.66668701171875" y="229.5" />
              <mxPoint x="273.33331298828125" y="229.5" />
              <mxPoint x="280" y="229.5" />
            </Array>
          </mxGeometry>
        </mxCell>
        <mxCell id="26" style="shape=filledEdge;strokeWidth=1;strokeColor=#000000;fillColor=none;startArrow=none;startFill=0;startSize=6;endArrow=block;endFill=1;endSize=6;rounded=1;gliffyId=16;edgeStyle=orthogonalEdgeStyle;" parent="2" source="5" target="8" edge="1">
          <mxGeometry width="100" height="100" relative="1" as="geometry">
            <Array as="points">
              <mxPoint x="380" y="229.5" />
              <mxPoint x="386.66668701171875" y="229.5" />
              <mxPoint x="393.33331298828125" y="229.5" />
              <mxPoint x="400" y="229.5" />
            </Array>
          </mxGeometry>
        </mxCell>
        <mxCell id="27" style="shape=filledEdge;strokeWidth=1;strokeColor=#000000;fillColor=none;startArrow=none;startFill=0;startSize=6;endArrow=block;endFill=1;endSize=6;rounded=1;gliffyId=19;edgeStyle=orthogonalEdgeStyle;" parent="2" source="8" target="9" edge="1">
          <mxGeometry width="100" height="100" relative="1" as="geometry">
            <Array as="points">
              <mxPoint x="480" y="229.5" />
              <mxPoint x="486.6666564941406" y="229.5" />
              <mxPoint x="493.3333435058594" y="229.5" />
              <mxPoint x="500" y="229.5" />
            </Array>
          </mxGeometry>
        </mxCell>
        <mxCell id="28" style="shape=filledEdge;strokeWidth=1;strokeColor=#000000;fillColor=none;startArrow=none;startFill=0;startSize=6;endArrow=block;endFill=1;endSize=6;rounded=1;gliffyId=25;edgeStyle=orthogonalEdgeStyle;" parent="2" source="9" target="10" edge="1">
          <mxGeometry width="100" height="100" relative="1" as="geometry">
            <Array as="points">
              <mxPoint x="640" y="229.5" />
              <mxPoint x="646.6666259765625" y="229.5" />
              <mxPoint x="653.3333740234375" y="229.5" />
              <mxPoint x="660" y="229.5" />
            </Array>
          </mxGeometry>
        </mxCell>
        <mxCell id="29" style="shape=filledEdge;strokeWidth=1;strokeColor=#000000;fillColor=none;startArrow=none;startFill=0;startSize=6;endArrow=block;endFill=1;endSize=6;rounded=1;gliffyId=28;edgeStyle=orthogonalEdgeStyle;" parent="2" source="10" target="13" edge="1">
          <mxGeometry width="100" height="100" relative="1" as="geometry">
            <Array as="points">
              <mxPoint x="740" y="229.5" />
              <mxPoint x="746.6666870117188" y="229.5" />
              <mxPoint x="753.3333129882812" y="229.5" />
              <mxPoint x="760" y="229.5" />
            </Array>
          </mxGeometry>
        </mxCell>
        <mxCell id="30" style="shape=filledEdge;strokeWidth=1;strokeColor=#000000;fillColor=none;startArrow=none;startFill=0;startSize=6;endArrow=block;endFill=1;endSize=6;rounded=1;gliffyId=31;edgeStyle=orthogonalEdgeStyle;" parent="2" source="13" target="6" edge="1">
          <mxGeometry width="100" height="100" relative="1" as="geometry">
            <Array as="points">
              <mxPoint x="900" y="229.5" />
              <mxPoint x="910" y="229.5" />
              <mxPoint x="920" y="229.5" />
              <mxPoint x="930" y="229.5" />
            </Array>
          </mxGeometry>
        </mxCell>
        <mxCell id="31" style="shape=filledEdge;strokeWidth=1;strokeColor=#000000;fillColor=none;startArrow=none;startFill=0;startSize=6;endArrow=block;endFill=1;endSize=6;rounded=1;gliffyId=35;edgeStyle=orthogonalEdgeStyle;" parent="2" source="6" edge="1">
          <mxGeometry width="100" height="100" relative="1" as="geometry">
            <Array as="points">
              <mxPoint x="1030" y="229.5" />
              <mxPoint x="1036.666748046875" y="229.5" />
              <mxPoint x="1043.333251953125" y="229.5" />
              <mxPoint x="1050" y="229.5" />
            </Array>
            <mxPoint x="1050" y="229.5" as="targetPoint" />
          </mxGeometry>
        </mxCell>
        <mxCell id="ZxatZtUOmhE9-3AA2Q4v-32" value="DVPD Coverage of Data Vault load process steps" style="text;html=1;strokeColor=none;fillColor=none;align=left;verticalAlign=middle;whiteSpace=wrap;rounded=0;fontSize=16;fontStyle=1" vertex="1" parent="2">
          <mxGeometry x="70" y="30" width="540" height="30" as="geometry" />
        </mxCell>
        <mxCell id="ZxatZtUOmhE9-3AA2Q4v-35" value="" style="points=[[0.145,0.145,0],[0.5,0,0],[0.855,0.145,0],[1,0.5,0],[0.855,0.855,0],[0.5,1,0],[0.145,0.855,0],[0,0.5,0]];shape=mxgraph.bpmn.event;html=1;verticalLabelPosition=bottom;labelBackgroundColor=#ffffff;verticalAlign=top;align=center;perimeter=ellipsePerimeter;outlineConnect=0;aspect=fixed;outline=standard;symbol=general;" vertex="1" parent="2">
          <mxGeometry x="20" y="214.5" width="30" height="30" as="geometry" />
        </mxCell>
        <mxCell id="ZxatZtUOmhE9-3AA2Q4v-36" value="" style="points=[[0.145,0.145,0],[0.5,0,0],[0.855,0.145,0],[1,0.5,0],[0.855,0.855,0],[0.5,1,0],[0.145,0.855,0],[0,0.5,0]];shape=mxgraph.bpmn.event;html=1;verticalLabelPosition=bottom;labelBackgroundColor=#ffffff;verticalAlign=top;align=center;perimeter=ellipsePerimeter;outlineConnect=0;aspect=fixed;outline=end;symbol=terminate2;" vertex="1" parent="2">
          <mxGeometry x="1050" y="211.75" width="35.5" height="35.5" as="geometry" />
        </mxCell>
      </root>
    </mxGraphModel>
  </diagram>
</mxfile>
